<?xml version="1.0" standalone="no"?><!DOCTYPE svg PUBLIC "-//W3C//DTD SVG 1.1//EN" "http://www.w3.org/Graphics/SVG/1.1/DTD/svg11.dtd"><svg t="1582385023290" class="icon" viewBox="0 0 1024 1024" version="1.1" xmlns="http://www.w3.org/2000/svg" p-id="1418" xmlns:xlink="http://www.w3.org/1999/xlink" width="200" height="200"><defs><style type="text/css"></style></defs><path d="M512 1024c-58.08-89.344-100.672-137.728-127.68-145.184C190.112 825.248 48 652.672 48 448 48 200.576 255.744 0 512 0S976 200.576 976 448c0 203.168-140.064 374.72-332.032 429.632-27.904 7.968-71.872 56.768-131.968 146.368zM245.888 479.04V215.616H157.184V646.72h88.704v-62.88h554.4v62.88h66.56v-167.68H245.856z m116-74.816c51.84 0 93.824-40.256 93.824-89.824 0-49.632-41.952-89.824-93.824-89.824-51.808 0-93.824 40.192-93.824 89.824 0 49.6 42.016 89.824 93.824 89.824z m175.84 0h269.28c33.024 0 59.84-28.16 59.84-62.88 0-34.752-26.816-62.88-59.84-62.88h-269.28c-33.024 0-59.84 28.16-59.84 62.88 0 34.688 26.816 62.88 59.84 62.88z" fill="#1296db" p-id="1419"></path></svg>